<svg width="24" height="24" viewBox="0 0 24 24" fill="none" xmlns="http://www.w3.org/2000/svg">
<path d="M4.53571 2.5C3.41183 2.5 2.5 3.41183 2.5 4.53571V19.4643C2.5 20.5882 3.41183 21.5 4.53571 21.5H19.4643C20.5882 21.5 21.5 20.5882 21.5 19.4643V4.53571C21.5 3.41183 20.5882 2.5 19.4643 2.5H4.53571ZM10.5027 5.21429H18.062L17.3635 5.75969V6.72211C17.6229 6.75541 17.5954 6.91127 17.5954 7.09775V11.6451C17.5954 11.8557 17.4231 12.0281 17.2125 12.0281H17.0716C16.8609 12.0281 16.6886 11.8557 16.6886 11.6451V7.09775C16.6886 6.9108 16.6614 6.75481 16.9228 6.72194V6.11691L14.9115 7.76639C14.9347 7.80948 14.9568 7.83709 14.9778 7.87327C15.1545 8.18613 15.2445 8.57508 15.2445 9.05059C15.2445 9.41498 15.1838 9.74248 15.0606 10.0315C14.938 10.3207 14.7889 10.5568 14.615 10.7387C14.441 10.9212 14.2666 11.088 14.092 11.2382C13.9176 11.3886 13.7685 11.5455 13.6464 11.7084C13.5234 11.8708 13.462 12.0387 13.462 12.2126C13.462 12.3869 13.5416 12.5638 13.7001 12.7422C13.858 12.9211 14.0523 13.0945 14.2821 13.2657C14.5123 13.4358 14.7421 13.6246 14.9718 13.83C15.2021 14.0351 15.3954 14.2991 15.5533 14.6198C15.7123 14.9415 15.7919 15.2957 15.7919 15.685C15.7919 16.1986 15.6609 16.6624 15.3997 17.0752C15.138 17.4863 14.7967 17.8144 14.3776 18.0549C13.9573 18.297 13.5078 18.4793 13.0285 18.6024C12.5481 18.7244 12.0715 18.7857 11.5955 18.7857C11.2913 18.7856 10.9876 18.762 10.687 18.7151C10.3811 18.6676 10.0747 18.5837 9.76597 18.4655C9.45676 18.3465 9.18283 18.2004 8.94533 18.0248C8.70736 17.8512 8.5157 17.6269 8.36884 17.3539C8.22193 17.0808 8.14898 16.7737 8.14898 16.4327C8.14898 16.0282 8.26166 15.653 8.48754 15.3032C8.71338 14.9558 9.01267 14.6659 9.38487 14.4362C10.0343 14.0322 11.0531 13.7826 12.4398 13.6882C12.1228 13.292 11.9638 12.9189 11.9638 12.5699C11.9638 12.3713 12.0156 12.1585 12.1184 11.9287C11.9493 11.9526 11.7788 11.9647 11.6081 11.965C10.8633 11.965 10.2342 11.7228 9.72339 11.2352C9.2126 10.7484 8.95754 10.1391 8.95754 9.40234C8.95754 9.32533 8.95975 9.25734 8.96522 9.18223H5.93798L10.5027 5.21429ZM11.8335 6.84006C11.3585 6.84006 10.9941 7.01093 10.7401 7.35196C10.4861 7.69209 10.3591 8.10414 10.3591 8.5881C10.3591 9.00033 10.4286 9.42003 10.5678 9.848C10.7064 10.2757 10.9335 10.6576 11.2515 10.9941C11.5685 11.3316 11.9374 11.4999 12.3565 11.4999C12.8237 11.4999 13.1887 11.3434 13.4505 11.0304C13.7111 10.7178 13.8419 10.3232 13.8419 9.84795C13.8419 9.44319 13.773 9.01942 13.6344 8.57623C13.4963 8.13252 13.266 7.73217 12.9446 7.37575C12.6243 7.01814 12.2532 6.84006 11.8335 6.84006ZM12.6188 14.1381C12.278 14.1381 11.9428 14.1683 11.6137 14.2284C11.2846 14.287 10.9599 14.3858 10.6396 14.5253C10.3182 14.6639 10.0586 14.8677 9.86093 15.1372C9.66215 15.4064 9.56321 15.7234 9.56321 16.0882C9.56321 16.4357 9.65057 16.7458 9.82509 17.0158C9.99906 17.2842 10.2288 17.4944 10.5143 17.6449C10.7998 17.7956 11.0991 17.9093 11.4116 17.9842C11.7247 18.0584 12.0434 18.0971 12.3681 18.0971C13.0103 18.0971 13.563 17.9525 14.0269 17.6633C14.4896 17.3742 14.7216 16.9278 14.7216 16.3253C14.7216 16.1986 14.7039 16.0737 14.6691 15.952C14.6327 15.8288 14.5968 15.7234 14.5615 15.6359C14.5262 15.55 14.4588 15.4464 14.3594 15.3272C14.2853 15.2374 14.2101 15.1485 14.134 15.0604C14.0821 14.9997 13.985 14.913 13.8419 14.7983C13.7001 14.6833 13.6095 14.6115 13.5692 14.585H13.5691C13.5293 14.5571 13.4261 14.4817 13.2599 14.3594C13.0937 14.2359 13.0026 14.1704 12.9865 14.1627C12.8992 14.147 12.7768 14.1381 12.6188 14.1381Z" fill="black"/>
</svg>
